# xmcd CD database file
#
# Track frame offsets:
#	225
#	15047
#	29646
#	42953
#	59981
#	82736
#	96996
#	117872
#	135907
#	158087
#	176239
#	193760
#
# Disc length: 2752 seconds
#
# Revision: 1
# Processed by: cddbd v1.5.1PL0 Copyright (c) Steve Scherf et al.
# Submitted via: CDex 1.51
#
DISCID=990abd0c
DTITLE=Grainne Brookfield - Close Your Eyes
DYEAR=2005
DGENRE=Jazz
TTITLE0=I've Never Been in Love Before
TTITLE1=You'd Be So Nice To Come Home To
TTITLE2=Girl Talk
TTITLE3=Close You Eyes
TTITLE4=Wonderful World
TTITLE5=Sentimental Journey
TTITLE6=My Ideal
TTITLE7=Sing Sing Sing
TTITLE8=The Way You Look Tonight
TTITLE9=No Moon At All
TTITLE10=Smile
TTITLE11=The Wind Knows My Name
EXTD=YEAR: 2005
EXTT0=
EXTT1=
EXTT2=
EXTT3=
EXTT4=
EXTT5=
EXTT6=
EXTT7=
EXTT8=
EXTT9=
EXTT10=
EXTT11=
PLAYORDER=
